# bar_counter_end_left: generated by tools/props
mtllib bar_counter_end_left.mtl
o bar_counter_end_left
v -0.00300 1.01800 0.00600
vt 0.96700 0.00600
vn 0.0000 1.0000 0.0000
v -0.00300 1.01800 0.64500
vt 0.96700 0.64500
vn 0.0000 1.0000 0.0000
v 0.03000 1.01800 0.64500
vt 1.00000 0.64500
vn 0.0000 1.0000 0.0000
v -0.00300 1.01800 0.00600
vt 0.96700 0.00600
vn 0.0000 1.0000 0.0000
v 0.03000 1.01800 0.64500
vt 1.00000 0.64500
vn 0.0000 1.0000 0.0000
v 0.03000 1.01800 0.00600
vt 1.00000 0.00600
vn 0.0000 1.0000 0.0000
v -0.00300 0.00000 0.64500
vt 0.96700 0.64500
vn 0.0000 -1.0000 0.0000
v -0.00300 0.00000 0.00600
vt 0.96700 0.00600
vn 0.0000 -1.0000 0.0000
v 0.03000 0.00000 0.00600
vt 1.00000 0.00600
vn 0.0000 -1.0000 0.0000
v -0.00300 0.00000 0.64500
vt 0.96700 0.64500
vn 0.0000 -1.0000 0.0000
v 0.03000 0.00000 0.00600
vt 1.00000 0.00600
vn 0.0000 -1.0000 0.0000
v 0.03000 0.00000 0.64500
vt 1.00000 0.64500
vn 0.0000 -1.0000 0.0000
v 0.03000 0.00000 0.00600
vt 1.00000 0.00000
vn 0.0000 0.0000 -1.0000
v -0.00300 0.00000 0.00600
vt 0.96700 0.00000
vn 0.0000 0.0000 -1.0000
v -0.00300 1.01800 0.00600
vt 0.96700 1.00000
vn 0.0000 0.0000 -1.0000
v 0.03000 0.00000 0.00600
vt 1.00000 0.00000
vn 0.0000 0.0000 -1.0000
v -0.00300 1.01800 0.00600
vt 0.96700 1.00000
vn 0.0000 0.0000 -1.0000
v 0.03000 1.01800 0.00600
vt 1.00000 1.00000
vn 0.0000 0.0000 -1.0000
v -0.00300 0.00000 0.64500
vt 0.96700 0.00000
vn 0.0000 0.0000 1.0000
v 0.03000 0.00000 0.64500
vt 1.00000 0.00000
vn 0.0000 0.0000 1.0000
v 0.03000 1.01800 0.64500
vt 1.00000 1.00000
vn 0.0000 0.0000 1.0000
v -0.00300 0.00000 0.64500
vt 0.96700 0.00000
vn 0.0000 0.0000 1.0000
v 0.03000 1.01800 0.64500
vt 1.00000 1.00000
vn 0.0000 0.0000 1.0000
v -0.00300 1.01800 0.64500
vt 0.96700 1.00000
vn 0.0000 0.0000 1.0000
v -0.00300 0.00000 0.00600
vt 0.00600 0.00000
vn -1.0000 0.0000 0.0000
v -0.00300 0.00000 0.64500
vt 0.64500 0.00000
vn -1.0000 0.0000 0.0000
v -0.00300 1.01800 0.64500
vt 0.64500 1.00000
vn -1.0000 0.0000 0.0000
v -0.00300 0.00000 0.00600
vt 0.00600 0.00000
vn -1.0000 0.0000 0.0000
v -0.00300 1.01800 0.64500
vt 0.64500 1.00000
vn -1.0000 0.0000 0.0000
v -0.00300 1.01800 0.00600
vt 0.00600 1.00000
vn -1.0000 0.0000 0.0000
v 0.03000 0.00000 0.64500
vt 0.64500 0.00000
vn 1.0000 0.0000 0.0000
v 0.03000 0.00000 0.00600
vt 0.00600 0.00000
vn 1.0000 0.0000 0.0000
v 0.03000 1.01800 0.00600
vt 0.00600 1.00000
vn 1.0000 0.0000 0.0000
v 0.03000 0.00000 0.64500
vt 0.64500 0.00000
vn 1.0000 0.0000 0.0000
v 0.03000 1.01800 0.00600
vt 0.00600 1.00000
vn 1.0000 0.0000 0.0000
v 0.03000 1.01800 0.64500
vt 0.64500 1.00000
vn 1.0000 0.0000 0.0000
usemtl black
f 1/1/1 2/2/2 3/3/3
f 4/4/4 5/5/5 6/6/6
f 7/7/7 8/8/8 9/9/9
f 10/10/10 11/11/11 12/12/12
f 13/13/13 14/14/14 15/15/15
f 16/16/16 17/17/17 18/18/18
f 19/19/19 20/20/20 21/21/21
f 22/22/22 23/23/23 24/24/24
f 25/25/25 26/26/26 27/27/27
f 28/28/28 29/29/29 30/30/30
f 31/31/31 32/32/32 33/33/33
f 34/34/34 35/35/35 36/36/36
